<svg id="Icon_house" data-name="Icon/house" xmlns="http://www.w3.org/2000/svg" width="20" height="18" viewBox="0 0 20 18">
  <g id="home" transform="translate(0 0)">
    <path id="Home-2" data-name="Home" d="M13.32,18a1.711,1.711,0,0,1-1.669-1.75V10.122H8.311V16.25A1.711,1.711,0,0,1,6.642,18H4.972a2.567,2.567,0,0,1-2.5-2.626V9.246A.855.855,0,0,1,3.3,8.372a.855.855,0,0,1,.835.875v6.128a.856.856,0,0,0,.835.876h1.67V10.122a1.711,1.711,0,0,1,1.669-1.75h3.34a1.711,1.711,0,0,1,1.669,1.75V16.25h1.67a.855.855,0,0,0,.835-.876V9.246a.836.836,0,1,1,1.67,0v6.128A2.567,2.567,0,0,1,14.99,18ZM18.714,7.356,10.891,2.033a1.606,1.606,0,0,0-1.82,0L1.248,7.356A.813.813,0,0,1,.132,7.069.9.9,0,0,1,.347,5.885L8.17.563a3.208,3.208,0,0,1,3.631,0l7.823,5.322a.9.9,0,0,1,.242,1.209V7.1a.825.825,0,0,1-.7.395A.8.8,0,0,1,18.714,7.356Z" transform="translate(0 0)" fill="#6d7278"/>
  </g>
</svg>
