<svg id="Icon_Payment" xmlns="http://www.w3.org/2000/svg" width="16.56" height="14.904" viewBox="0 0 16.56 14.904">
  <g id="Group_197" data-name="Group 197">
    <path id="Path_20" data-name="Path 20" d="M14.473,3.345l-1.06-1.987A2.7,2.7,0,0,0,11.062,0,2.47,2.47,0,0,0,9.8.331l-5.5,2.981H2.65A2.657,2.657,0,0,0,0,5.962v6.293A2.657,2.657,0,0,0,2.65,14.9H13.91a2.657,2.657,0,0,0,2.65-2.65V5.962A2.669,2.669,0,0,0,14.473,3.345ZM10.6,1.788a.828.828,0,0,1,.464-.132.955.955,0,0,1,.861.53l.6,1.126H7.783ZM14.9,12.254a1,1,0,0,1-.994.994H2.65a1,1,0,0,1-.994-.994V5.962a1,1,0,0,1,.994-.994H13.91a1,1,0,0,1,.994.994Z" fill="#111"/>
    <path id="Path_21" data-name="Path 21" d="M19.108,21.656h-8.28A.82.82,0,0,1,10,20.828h0A.82.82,0,0,1,10.828,20h8.28a.82.82,0,0,1,.828.828h0A.841.841,0,0,1,19.108,21.656Z" transform="translate(-6.688 -13.376)" fill="#ff6000"/>
  </g>
</svg>
