<svg id="Stockholm_icons_Home_Key" data-name="Stockholm icons / Home / Key" xmlns="http://www.w3.org/2000/svg" width="24" height="24" viewBox="0 0 24 24">
  <g id="Group_42" data-name="Group 42" transform="translate(3 3)">
    <g id="call" transform="translate(19 19) rotate(180)">
      <path id="Path" d="M.833,10.417a9.487,9.487,0,0,0,2.975-.475.836.836,0,0,1,.846.2l1.833,1.837A12.55,12.55,0,0,0,11.979,6.5L10.146,4.654a.836.836,0,0,1-.2-.846A9.487,9.487,0,0,0,10.417.833.83.83,0,0,1,11.25,0h2.917A.833.833,0,0,1,15,.833,14.165,14.165,0,0,1,.833,15,.83.83,0,0,1,0,14.167V11.25A.83.83,0,0,1,.833,10.417Z" transform="translate(15 15) rotate(180)" fill="#a1afc3"/>
    </g>
    <path id="Shape" d="M.047,12.01h0A11,11,0,0,1,11,0c.341,0,.687.016,1.027.048l-.185,1.992C11.562,2.014,11.279,2,11,2a9,9,0,0,0-8.957,9.828L.048,12.01Zm3.984-.356h0A7,7,0,0,1,11,4c.225,0,.452.011.676.032l-.191,1.991C11.324,6.008,11.162,6,11,6a5,5,0,0,0-4.976,5.467l-1.99.186Z" transform="translate(0 0)" fill="#a1afc3"/>
  </g>
</svg>
