<svg xmlns="http://www.w3.org/2000/svg" width="20.37" height="20.37" viewBox="0 0 20.37 20.37">
  <g id="team" transform="translate(-4.192 0.1)">
    <g id="Rectangle_8652" data-name="Rectangle 8652" transform="translate(12.336 18)" fill="#fff" stroke="#ff6000" stroke-width="1">
      <rect width="5" height="2" stroke="none"/>
      <rect x="0.5" y="0.5" width="4" height="1" fill="none"/>
    </g>
    <path id="Path_46131" data-name="Path 46131" d="M20.052,3.6,16.57.116a.394.394,0,0,0-.591.038l-.818,1.062A3.744,3.744,0,0,0,11.8,2.375l-.778.747c-.035-.02-.975-.61-1.146-.7a7.2,7.2,0,0,0-4.34-1.233,4.243,4.243,0,0,0-.524.039L4.186.154A.394.394,0,0,0,3.6.116L.114,3.6a.394.394,0,0,0,.038.591l1.062.818A3.744,3.744,0,0,0,2.373,8.368l2.674,2.788c.057.377.309,1.964.359,2.233.046.246.1.524.156.711a11.566,11.566,0,0,0,.884,2.328A7.38,7.38,0,0,0,7.76,18.041a4.2,4.2,0,0,0,.383.331l.015.012-.175,1.342a.394.394,0,0,0,.39.445H13.3a.394.394,0,0,0,.39-.445l-.173-1.33a3.551,3.551,0,0,0,.686-.626.394.394,0,0,0-.6-.507,2.778,2.778,0,0,1-.618.544h0l-4.272.005c-.042-.031-.328-.264-.387-.325a6.744,6.744,0,0,1-1.187-1.445,10.8,10.8,0,0,1-.816-2.169c-.033-.106-.083-.34-.136-.627-.13-.7-.471-2.99-.471-2.995a.1.1,0,0,1,.094-.1l.067,0a.959.959,0,0,1,.937.768L7.333,13.5a.4.4,0,0,0,.386.316l.04,0a.394.394,0,0,0,.355-.392V5.187a.5.5,0,0,1,.146-.353.489.489,0,0,1,.351-.146.5.5,0,0,1,.5.5v7.106a.394.394,0,0,0,.788,0V4.241a.492.492,0,0,1,.146-.353.624.624,0,0,1,.407-.143.481.481,0,0,1,.3.15.529.529,0,0,1,.146.366v8.031a.384.384,0,1,0,.768,0v-7.1l.01,0a.5.5,0,0,1,.151-.353.5.5,0,0,1,.354-.146.5.5,0,0,1,.5.5l-.1,7.1a.394.394,0,0,0,.386.4h.008a.4.4,0,0,0,.4-.386l.107-5.235V7.058a.5.5,0,0,1,.141-.353.484.484,0,0,1,.349-.146.5.5,0,0,1,.5.5l-.148,7.087a.394.394,0,1,0,.787.017l.035-1.679s.541-.453.759-.641a9.041,9.041,0,0,0,1.855-1.954,6.91,6.91,0,0,0,1.236-4.347,4.255,4.255,0,0,0-.039-.524l1.072-.825a.393.393,0,0,0,.038-.59ZM8.925,18.6l3.823,0,.1.787H8.823ZM.988,3.838,3.836.99l.481.626-2.7,2.706Zm8.5-.505a1.273,1.273,0,0,0-.355.677A1.277,1.277,0,0,0,8.61,3.9h0A1.285,1.285,0,0,0,7.325,5.187v4.954a1.764,1.764,0,0,0-.619-.568,1.744,1.744,0,0,0-.835-.213c-.041,0-.082,0-.122,0a.889.889,0,0,0-.772.58L2.939,7.819l-.006-.006a2.974,2.974,0,0,1-.923-2.77L5.028,2.019a4.044,4.044,0,0,1,.5-.044A6.437,6.437,0,0,1,9.5,3.114c.037.02.084.048.14.082A1.245,1.245,0,0,0,9.484,3.332ZM17.057,9.5a10.171,10.171,0,0,1-1.9,1.933l.091-4.367V7.058a1.3,1.3,0,0,0-.376-.919,1.285,1.285,0,0,0-.909-.387h0a1.244,1.244,0,0,0-.487.119V5.187a1.294,1.294,0,0,0-1.3-1.287h0a1.273,1.273,0,0,0-.521.111,1.322,1.322,0,0,0-.1-.308l.794-.762.006-.006a2.974,2.974,0,0,1,2.77-.923L18.149,5.03a4.044,4.044,0,0,1,.044.5A6.162,6.162,0,0,1,17.057,9.5Zm1.495-5.18-2.706-2.7L16.33.99l2.848,2.848Z" transform="translate(4.294 0)" stroke="#000" stroke-width="0.2"/>
    <ellipse id="Ellipse_1114" data-name="Ellipse 1114" cx="0.391" cy="0.391" rx="0.391" ry="0.391" transform="translate(18.558 15.427)" fill="#ff6000"/>
  </g>
</svg>
