<svg id="translate" xmlns="http://www.w3.org/2000/svg" width="17.655" height="16.05" viewBox="0 0 17.655 16.05">
  <g id="Group_50913" data-name="Group 50913">
    <g id="Group_50912" data-name="Group 50912" transform="translate(0 0)">
      <path id="Path_16829" data-name="Path 16829" d="M9.525,31.825h0L7.487,29.811l.024-.024a14.059,14.059,0,0,0,2.977-5.24H12.84V22.938H7.222v-1.6h-1.6v1.6H0v1.6H8.964a12.674,12.674,0,0,1-2.544,4.3,12.655,12.655,0,0,1-1.854-2.688h-1.6a14.093,14.093,0,0,0,2.391,3.659L1.272,33.84l1.136,1.136L6.42,30.963l2.5,2.5Z" transform="translate(0 -21.333)"/>
      <path id="Path_16830" data-name="Path 16830" d="M239.882,192h-1.6l-3.611,9.63h1.6l.9-2.407h3.812l.9,2.407h1.6Zm-2.107,5.617,1.3-3.479,1.3,3.479Z" transform="translate(-225.839 -185.58)" fill="#f9763b"/>
    </g>
  </g>
</svg>
