<svg xmlns="http://www.w3.org/2000/svg" width="16.681" height="16.709" viewBox="0 0 16.681 16.709">
  <g id="Icon_Alert" transform="translate(0.751 0.75)">
    <path id="Subtraction_4" data-name="Subtraction 4" d="M13.653,15.209c-.046,0-.092,0-.138-.006A15.169,15.169,0,0,1,6.929,12.86a14.981,14.981,0,0,1-4.58-4.579A15.178,15.178,0,0,1,.006,1.663,1.526,1.526,0,0,1,1.526,0H3.831a1.532,1.532,0,0,1,1.51,1.312,9.793,9.793,0,0,0,.534,2.145,1.532,1.532,0,0,1-.343,1.611l-.969.969a12.223,12.223,0,0,0,4.579,4.579l.969-.969a1.525,1.525,0,0,1,1.61-.344,9.845,9.845,0,0,0,2.145.535,1.526,1.526,0,0,1,1.313,1.549v2.29a1.527,1.527,0,0,1-1.526,1.533Z" transform="translate(0 0)" fill="none" stroke="#000" stroke-linecap="round" stroke-linejoin="round" stroke-width="1.5"/>
    <g id="Group_50910" data-name="Group 50910" transform="translate(8.875 0.236)">
      <path id="Subtraction_5" data-name="Subtraction 5" d="M2.494,5.019l0,0L0,2.525A3.143,3.143,0,0,1,2.493,5.016ZM5.02,5.013l0,0L0,0A5.706,5.706,0,0,1,3.389,1.627,5.7,5.7,0,0,1,5.02,5.01Z" fill="none" stroke="#f9763b" stroke-linecap="round" stroke-linejoin="round" stroke-width="1"/>
      <path id="Path_16828" data-name="Path 16828" d="M0,0,1.953,1.63l2,2.321" transform="translate(0.907 0.277)" fill="none" stroke="#f9763b" stroke-width="1"/>
    </g>
  </g>
</svg>
