<svg id="Icon_Alert" xmlns="http://www.w3.org/2000/svg" width="13.013" height="13.96" viewBox="0 0 13.013 13.96">
  <path id="Icon_ionic-md-share" data-name="Icon ionic-md-share" d="M14.963,12.985a1.9,1.9,0,0,0-1.365.526l-5-2.911a2.373,2.373,0,0,0,.07-.491,2.372,2.372,0,0,0-.07-.491l4.934-2.876A2.11,2.11,0,1,0,12.864,5.2a2.359,2.359,0,0,0,.07.491l-1.653.963L8,8.565a2.089,2.089,0,1,0,.035,3.087L13,14.563a1.77,1.77,0,0,0-.07.456,2.03,2.03,0,1,0,2.03-2.034Z" transform="translate(-4.05 -3.094)"/>
  <circle id="Ellipse_1113" data-name="Ellipse 1113" cx="2.5" cy="2.5" r="2.5" transform="translate(0 4.817)" fill="#f9763b"/>
</svg>
