<svg id="Icon_house" data-name="Icon/house" xmlns="http://www.w3.org/2000/svg" width="31" height="28" viewBox="0 0 31 28">
  <g id="home" transform="translate(0 0)">
    <path id="Home-2" data-name="Home" d="M20.646,28a2.657,2.657,0,0,1-2.587-2.723V15.745H12.882v9.532A2.657,2.657,0,0,1,10.3,28H7.707a3.987,3.987,0,0,1-3.882-4.085V14.383a1.328,1.328,0,0,1,1.294-1.361,1.327,1.327,0,0,1,1.294,1.361v9.532a1.33,1.33,0,0,0,1.295,1.362H10.3V15.745a2.657,2.657,0,0,1,2.587-2.723h5.177a2.657,2.657,0,0,1,2.587,2.723v9.532h2.588a1.329,1.329,0,0,0,1.294-1.362V14.383a1.3,1.3,0,1,1,2.588,0v9.532A3.987,3.987,0,0,1,23.235,28Zm8.36-16.558L16.881,3.163a2.483,2.483,0,0,0-2.82,0L1.935,11.442A1.257,1.257,0,0,1,.205,11,1.41,1.41,0,0,1,.538,9.154L12.663.876a4.958,4.958,0,0,1,5.628,0L30.416,9.154a1.407,1.407,0,0,1,.375,1.88v.014a1.278,1.278,0,0,1-1.083.614A1.241,1.241,0,0,1,29.006,11.442Z" transform="translate(0 0)" fill="#fff"/>
  </g>
</svg>
