<svg xmlns="http://www.w3.org/2000/svg" width="29.209" height="29.209" viewBox="0 0 29.209 29.209">
  <g id="instagram" opacity="0.31">
    <path id="Path_16893" data-name="Path 16893" d="M212.591,209.8a2.8,2.8,0,1,1-2.8-2.8A2.8,2.8,0,0,1,212.591,209.8Zm0,0" transform="translate(-195.191 -195.191)"/>
    <path id="Path_16894" data-name="Path 16894" d="M148.9,137.418a2.777,2.777,0,0,0-1.592-1.592,4.639,4.639,0,0,0-1.557-.289c-.884-.04-1.15-.049-3.389-.049s-2.5.008-3.389.049a4.643,4.643,0,0,0-1.557.289,2.778,2.778,0,0,0-1.592,1.592,4.642,4.642,0,0,0-.289,1.557c-.04.884-.049,1.149-.049,3.389s.009,2.5.049,3.389a4.64,4.64,0,0,0,.289,1.557,2.777,2.777,0,0,0,1.592,1.592,4.634,4.634,0,0,0,1.557.289c.884.04,1.149.049,3.389.049s2.5-.008,3.389-.049a4.635,4.635,0,0,0,1.557-.289,2.777,2.777,0,0,0,1.592-1.592,4.645,4.645,0,0,0,.289-1.557c.04-.885.049-1.15.049-3.389s-.008-2.5-.049-3.389A4.634,4.634,0,0,0,148.9,137.418Zm-6.537,9.252a4.306,4.306,0,1,1,4.306-4.306A4.306,4.306,0,0,1,142.36,146.67Zm4.477-7.777a1.006,1.006,0,1,1,1.006-1.006A1.006,1.006,0,0,1,146.837,138.894Zm0,0" transform="translate(-127.755 -127.759)"/>
    <path id="Path_16895" data-name="Path 16895" d="M14.6,0a14.6,14.6,0,1,0,14.6,14.6A14.606,14.606,0,0,0,14.6,0ZM22.94,18.062a6.153,6.153,0,0,1-.39,2.036A4.288,4.288,0,0,1,20.1,22.55a6.157,6.157,0,0,1-2.035.39c-.894.041-1.18.051-3.457.051s-2.563-.01-3.458-.051a6.157,6.157,0,0,1-2.035-.39A4.288,4.288,0,0,1,6.659,20.1a6.151,6.151,0,0,1-.39-2.035c-.041-.895-.051-1.18-.051-3.458s.01-2.563.051-3.458a6.153,6.153,0,0,1,.39-2.036A4.291,4.291,0,0,1,9.111,6.659a6.158,6.158,0,0,1,2.036-.39c.894-.041,1.18-.051,3.457-.051s2.563.01,3.457.051a6.16,6.16,0,0,1,2.036.389A4.289,4.289,0,0,1,22.55,9.111a6.152,6.152,0,0,1,.39,2.036c.041.894.05,1.18.05,3.458S22.981,17.168,22.94,18.062Zm0,0"/>
  </g>
</svg>
