<svg xmlns="http://www.w3.org/2000/svg" width="16.155" height="16.179" viewBox="0 0 16.155 16.179">
  <g id="Stockholm_icons_Home_Key" data-name="Stockholm icons / Home / Key" transform="translate(0.5 0.5)">
    <g id="Group_114" data-name="Group 114" transform="translate(1 0)">
      <path id="Path" d="M5.3,0,0,5.148v2.5H2.5V5.981H4.118V4.314H5.833l1.82-1.966Z" transform="translate(-1 7.531)" fill="none" stroke="#000" stroke-width="1"/>
      <path id="Shape" d="M5,10A5,5,0,0,1,1.464,1.464,5,5,0,1,1,8.536,8.536,4.968,4.968,0,0,1,5,10Zm.947-6.97a1.25,1.25,0,1,0,.884.367A1.242,1.242,0,0,0,5.947,3.03Z" transform="translate(4.154 0)" fill="none" stroke="#000" stroke-width="1"/>
    </g>
  </g>
</svg>
