<svg xmlns="http://www.w3.org/2000/svg" width="29.209" height="29.209" viewBox="0 0 29.209 29.209">
  <path id="linkedin" d="M14.6,0a14.6,14.6,0,1,0,14.6,14.6A14.606,14.606,0,0,0,14.6,0ZM10.361,22.078H6.8v-10.7h3.557ZM8.582,9.916H8.559a1.854,1.854,0,1,1,.047-3.7,1.855,1.855,0,1,1-.024,3.7Zm14.6,12.162H19.629V16.353c0-1.439-.515-2.42-1.8-2.42A1.947,1.947,0,0,0,16,15.234a2.436,2.436,0,0,0-.117.868v5.976H12.329s.047-9.7,0-10.7h3.557v1.515a3.531,3.531,0,0,1,3.205-1.766c2.34,0,4.095,1.529,4.095,4.816Zm0,0" opacity="0.25"/>
</svg>
