<svg xmlns="http://www.w3.org/2000/svg" width="29.209" height="29.209" viewBox="0 0 29.209 29.209">
  <path id="twitter" d="M14.6,0a14.6,14.6,0,1,0,14.6,14.6A14.606,14.606,0,0,0,14.6,0Zm6.668,11.387q.01.216.01.433a9.473,9.473,0,0,1-9.538,9.538h0a9.488,9.488,0,0,1-5.138-1.506,6.818,6.818,0,0,0,.8.046,6.726,6.726,0,0,0,4.163-1.435,3.356,3.356,0,0,1-3.132-2.328,3.341,3.341,0,0,0,1.514-.057,3.353,3.353,0,0,1-2.689-3.286c0-.015,0-.029,0-.043a3.329,3.329,0,0,0,1.518.419A3.355,3.355,0,0,1,7.743,8.693a9.517,9.517,0,0,0,6.91,3.5,3.354,3.354,0,0,1,5.712-3.057,6.724,6.724,0,0,0,2.129-.814,3.365,3.365,0,0,1-1.474,1.854,6.686,6.686,0,0,0,1.925-.528,6.812,6.812,0,0,1-1.672,1.736Zm0,0" opacity="0.25"/>
</svg>
